# xmcd
#
# Track frame offsets:
#	150
#	42577
#	79626
#	109523
#	140947
#	165740
#	204011
#	231539
#	251391
#
# Disc length: 3664 seconds
#
# Revision: 0
# Processed by: cddbd v1.5.1PL0 Copyright (c) Steve Scherf et al.
# Submitted via: audiograbber 1.83.01
#
DISCID=760e4e09
DTITLE=Lutz "Hammond" Krajenski Group - Goodbye
DYEAR=2005
DGENRE=
TTITLE0=Fun Louis Blues
TTITLE1=Loops
TTITLE2=Goodbye
TTITLE3=Didn't Know What Time It Was
TTITLE4=Tune EX
TTITLE5=Calypso
TTITLE6=5er Touring
TTITLE7=My Ideal
TTITLE8=Four on The Six
EXTD=
EXTT0=
EXTT1=
EXTT2=
EXTT3=
EXTT4=
EXTT5=
EXTT6=
EXTT7=
EXTT8=
PLAYORDER=
